<svg xmlns="http://www.w3.org/2000/svg" viewBox="0 0 64 64" width="64" height="64">
  <defs>
    <linearGradient id="grad" x1="0%" y1="0%" x2="100%" y2="100%">
      <stop offset="0%" style="stop-color:#4A90E2;stop-opacity:1" />
      <stop offset="100%" style="stop-color:#357ABD;stop-opacity:1" />
    </linearGradient>
  </defs>
  
  <!-- Central hub circle -->
  <circle cx="32" cy="32" r="10" fill="url(#grad)" stroke="#2C5F8D" stroke-width="2"/>
  
  <!-- Automation gear teeth inside hub -->
  <path d="M32 26 L33 28 L35 28 L33 30 L34 32 L32 31 L30 32 L31 30 L29 28 L31 28 Z" fill="#FFE082"/>
  
  <!-- Top node -->
  <circle cx="32" cy="8" r="5" fill="url(#grad)" stroke="#2C5F8D" stroke-width="1.5"/>
  <line x1="32" y1="13" x2="32" y2="22" stroke="#4A90E2" stroke-width="2" stroke-dasharray="2,2"/>
  <circle cx="32" cy="8" r="2" fill="#FFE082"/>
  
  <!-- Bottom node -->
  <circle cx="32" cy="56" r="5" fill="url(#grad)" stroke="#2C5F8D" stroke-width="1.5"/>
  <line x1="32" y1="51" x2="32" y2="42" stroke="#4A90E2" stroke-width="2" stroke-dasharray="2,2"/>
  <circle cx="32" cy="56" r="2" fill="#FFE082"/>
  
  <!-- Left node -->
  <circle cx="8" cy="32" r="5" fill="url(#grad)" stroke="#2C5F8D" stroke-width="1.5"/>
  <line x1="13" y1="32" x2="22" y2="32" stroke="#4A90E2" stroke-width="2" stroke-dasharray="2,2"/>
  <circle cx="8" cy="32" r="2" fill="#FFE082"/>
  
  <!-- Right node -->
  <circle cx="56" cy="32" r="5" fill="url(#grad)" stroke="#2C5F8D" stroke-width="1.5"/>
  <line x1="51" y1="32" x2="42" y2="32" stroke="#4A90E2" stroke-width="2" stroke-dasharray="2,2"/>
  <circle cx="56" cy="32" r="2" fill="#FFE082"/>
  
  <!-- Diagonal nodes -->
  <!-- Top-left -->
  <circle cx="14" cy="14" r="4" fill="url(#grad)" stroke="#2C5F8D" stroke-width="1.5"/>
  <line x1="17" y1="17" x2="25" y2="25" stroke="#4A90E2" stroke-width="2" stroke-dasharray="2,2"/>
  <circle cx="14" cy="14" r="1.5" fill="#FFE082"/>
  
  <!-- Top-right -->
  <circle cx="50" cy="14" r="4" fill="url(#grad)" stroke="#2C5F8D" stroke-width="1.5"/>
  <line x1="47" y1="17" x2="39" y2="25" stroke="#4A90E2" stroke-width="2" stroke-dasharray="2,2"/>
  <circle cx="50" cy="14" r="1.5" fill="#FFE082"/>
  
  <!-- Bottom-left -->
  <circle cx="14" cy="50" r="4" fill="url(#grad)" stroke="#2C5F8D" stroke-width="1.5"/>
  <line x1="17" y1="47" x2="25" y2="39" stroke="#4A90E2" stroke-width="2" stroke-dasharray="2,2"/>
  <circle cx="14" cy="50" r="1.5" fill="#FFE082"/>
  
  <!-- Bottom-right -->
  <circle cx="50" cy="50" r="4" fill="url(#grad)" stroke="#2C5F8D" stroke-width="1.5"/>
  <line x1="47" y1="47" x2="39" y2="39" stroke="#4A90E2" stroke-width="2" stroke-dasharray="2,2"/>
  <circle cx="50" cy="50" r="1.5" fill="#FFE082"/>
</svg>
