<svg xmlns="http://www.w3.org/2000/svg" viewBox="0 0 64 64" width="64" height="64">
	<defs>
		<linearGradient id="ringGradient" x1="0%" y1="0%" x2="100%" y2="100%">
			<stop offset="0%" stop-color="#8B9FDE" stop-opacity="0.9" />
			<stop offset="100%" stop-color="#73D1B8" stop-opacity="0.85" />
		</linearGradient>
		<linearGradient id="roofGradient" x1="35%" y1="0%" x2="70%" y2="100%">
			<stop offset="0%" stop-color="#8B9FDE" />
			<stop offset="100%" stop-color="#8FB5D6" />
		</linearGradient>
		<linearGradient id="bodyGradient" x1="50%" y1="0%" x2="50%" y2="100%">
			<stop offset="0%" stop-color="#7DD4A8" />
			<stop offset="100%" stop-color="#6ECEB2" />
		</linearGradient>
		<linearGradient id="doorGradient" x1="0%" y1="0%" x2="0%" y2="100%">
			<stop offset="0%" stop-color="#E8B563" />
			<stop offset="100%" stop-color="#E07A5F" />
		</linearGradient>
	</defs>

	<circle cx="32" cy="32" r="26" fill="none" stroke="url(#ringGradient)" stroke-width="4" />
	<circle cx="32" cy="32" r="20.5" fill="#10141e" fill-opacity="0.65" />

	<g fill="none" stroke-linecap="round" stroke-width="3">
		<path d="M19.5 23.5c3.6-4.4 9.8-7.6 9.2-7.2" stroke="#8FB5D6" opacity="0.9" />
		<path d="M44.5 23.5c-3.6-4.4-9.8-7.6-9.2-7.2" stroke="#73D1B8" opacity="0.85" />
		<path d="M19.5 40.5c3.6 4.4 9.8 7.6 9.2 7.2" stroke="#A4CD76" opacity="0.85" />
		<path d="M44.5 40.5c-3.6 4.4-9.8 7.6-9.2 7.2" stroke="#F4A261" opacity="0.9" />
	</g>

	<g>
		<circle cx="18.8" cy="22.5" r="3.8" fill="#8FB5D6" />
		<circle cx="45.2" cy="22.5" r="3.8" fill="#73D1B8" />
		<circle cx="18.8" cy="41.5" r="3.8" fill="#A4CD76" />
		<circle cx="45.2" cy="41.5" r="3.8" fill="#F4A261" />
	</g>

	<path
		d="M32 19 L21.2 28.2 C20.6 28.7 20.6 29.6 21.2 30.1 L23.4 32 V43.5 C23.4 45.1 24.7 46.4 26.3 46.4 H37.7 C39.3 46.4 40.6 45.1 40.6 43.5 V32 L42.8 30.1 C43.4 29.6 43.4 28.7 42.8 28.2 L32 19 Z"
		fill="url(#roofGradient)"
		opacity="0.94"
	/>
	<rect x="24.4" y="32.5" width="15.2" height="12.5" rx="2.2" fill="url(#bodyGradient)" />
	<rect x="29.5" y="35.8" width="6" height="9.2" rx="1.8" fill="url(#doorGradient)" />
	<circle cx="32.5" cy="39.6" r="0.9" fill="#3A2F2F" opacity="0.75" />
	<circle cx="32" cy="27" r="3" fill="#E8B563" opacity="0.95" />
</svg>
